<svg xmlns="http://www.w3.org/2000/svg" xmlns:xlink="http://www.w3.org/1999/xlink" width="500" zoomAndPan="magnify" viewBox="0 0 375 374.999991" height="500" preserveAspectRatio="xMidYMid meet" version="1.0"><defs><g/><clipPath id="6094d6ba69"><path d="M 81.351562 171.292969 L 116.019531 171.292969 L 116.019531 178.226562 L 81.351562 178.226562 Z M 81.351562 171.292969 " clip-rule="nonzero"/></clipPath><clipPath id="108b04cf75"><path d="M 84.816406 171.292969 L 112.554688 171.292969 C 113.511719 171.292969 114.328125 171.632812 115.003906 172.308594 C 115.683594 172.984375 116.019531 173.804688 116.019531 174.761719 C 116.019531 175.71875 115.683594 176.535156 115.003906 177.210938 C 114.328125 177.890625 113.511719 178.226562 112.554688 178.226562 L 84.816406 178.226562 C 83.859375 178.226562 83.042969 177.890625 82.367188 177.210938 C 81.6875 176.535156 81.351562 175.71875 81.351562 174.761719 C 81.351562 173.804688 81.6875 172.984375 82.367188 172.308594 C 83.042969 171.632812 83.859375 171.292969 84.816406 171.292969 Z M 84.816406 171.292969 " clip-rule="nonzero"/></clipPath><clipPath id="3b75e9838a"><path d="M 81.351562 182.816406 L 116.019531 182.816406 L 116.019531 189.75 L 81.351562 189.75 Z M 81.351562 182.816406 " clip-rule="nonzero"/></clipPath><clipPath id="3fb1b28634"><path d="M 84.816406 182.816406 L 112.554688 182.816406 C 113.511719 182.816406 114.328125 183.15625 115.003906 183.832031 C 115.683594 184.507812 116.019531 185.324219 116.019531 186.28125 C 116.019531 187.242188 115.683594 188.058594 115.003906 188.734375 C 114.328125 189.410156 113.511719 189.75 112.554688 189.75 L 84.816406 189.75 C 83.859375 189.75 83.042969 189.410156 82.367188 188.734375 C 81.6875 188.058594 81.351562 187.242188 81.351562 186.28125 C 81.351562 185.324219 81.6875 184.507812 82.367188 183.832031 C 83.042969 183.15625 83.859375 182.816406 84.816406 182.816406 Z M 84.816406 182.816406 " clip-rule="nonzero"/></clipPath><clipPath id="fbd17e6d8e"><path d="M 81.351562 182.816406 L 105.273438 182.816406 L 105.273438 189.75 L 81.351562 189.75 Z M 81.351562 182.816406 " clip-rule="nonzero"/></clipPath><clipPath id="ff6c09b80b"><path d="M 84.816406 182.816406 L 101.804688 182.816406 C 102.761719 182.816406 103.582031 183.15625 104.257812 183.832031 C 104.933594 184.507812 105.273438 185.324219 105.273438 186.28125 C 105.273438 187.242188 104.933594 188.058594 104.257812 188.734375 C 103.582031 189.410156 102.761719 189.75 101.804688 189.75 L 84.816406 189.75 C 83.859375 189.75 83.042969 189.410156 82.367188 188.734375 C 81.6875 188.058594 81.351562 187.242188 81.351562 186.28125 C 81.351562 185.324219 81.6875 184.507812 82.367188 183.832031 C 83.042969 183.15625 83.859375 182.816406 84.816406 182.816406 Z M 84.816406 182.816406 " clip-rule="nonzero"/></clipPath><clipPath id="2b8ba16577"><path d="M 81.351562 194.453125 L 116.019531 194.453125 L 116.019531 201.386719 L 81.351562 201.386719 Z M 81.351562 194.453125 " clip-rule="nonzero"/></clipPath><clipPath id="d3045874bd"><path d="M 84.816406 194.453125 L 112.554688 194.453125 C 113.511719 194.453125 114.328125 194.792969 115.003906 195.46875 C 115.683594 196.144531 116.019531 196.960938 116.019531 197.921875 C 116.019531 198.878906 115.683594 199.695312 115.003906 200.371094 C 114.328125 201.046875 113.511719 201.386719 112.554688 201.386719 L 84.816406 201.386719 C 83.859375 201.386719 83.042969 201.046875 82.367188 200.371094 C 81.6875 199.695312 81.351562 198.878906 81.351562 197.921875 C 81.351562 196.960938 81.6875 196.144531 82.367188 195.46875 C 83.042969 194.792969 83.859375 194.453125 84.816406 194.453125 Z M 84.816406 194.453125 " clip-rule="nonzero"/></clipPath><clipPath id="58d028a10d"><path d="M 81.351562 194.453125 L 95.21875 194.453125 L 95.21875 201.386719 L 81.351562 201.386719 Z M 81.351562 194.453125 " clip-rule="nonzero"/></clipPath><clipPath id="03d9ac2fbf"><path d="M 84.816406 194.453125 L 91.75 194.453125 C 92.710938 194.453125 93.527344 194.792969 94.203125 195.46875 C 94.878906 196.144531 95.21875 196.960938 95.21875 197.921875 C 95.21875 198.878906 94.878906 199.695312 94.203125 200.371094 C 93.527344 201.046875 92.710938 201.386719 91.75 201.386719 L 84.816406 201.386719 C 83.859375 201.386719 83.042969 201.046875 82.367188 200.371094 C 81.6875 199.695312 81.351562 198.878906 81.351562 197.921875 C 81.351562 196.960938 81.6875 196.144531 82.367188 195.46875 C 83.042969 194.792969 83.859375 194.453125 84.816406 194.453125 Z M 84.816406 194.453125 " clip-rule="nonzero"/></clipPath></defs><g clip-path="url(#6094d6ba69)"><g clip-path="url(#108b04cf75)"><path fill="#fefeff" d="M 81.351562 171.292969 L 116.019531 171.292969 L 116.019531 178.226562 L 81.351562 178.226562 Z M 81.351562 171.292969 " fill-opacity="1" fill-rule="nonzero"/><path fill="#1d325f" d="M 81.351562 171.292969 L 116.019531 171.292969 L 116.019531 178.226562 L 81.351562 178.226562 Z M 81.351562 171.292969 " fill-opacity="1" fill-rule="nonzero"/></g></g><g clip-path="url(#3b75e9838a)"><g clip-path="url(#3fb1b28634)"><path fill="#e9ecef" d="M 81.351562 182.816406 L 116.019531 182.816406 L 116.019531 189.75 L 81.351562 189.75 Z M 81.351562 182.816406 " fill-opacity="1" fill-rule="nonzero"/></g></g><g clip-path="url(#fbd17e6d8e)"><g clip-path="url(#ff6c09b80b)"><path fill="#1d325f" d="M 81.351562 182.816406 L 116.019531 182.816406 L 116.019531 189.75 L 81.351562 189.75 Z M 81.351562 182.816406 " fill-opacity="1" fill-rule="nonzero"/></g></g><g clip-path="url(#2b8ba16577)"><g clip-path="url(#d3045874bd)"><path fill="#e9ecef" d="M 81.351562 194.453125 L 116.019531 194.453125 L 116.019531 201.386719 L 81.351562 201.386719 Z M 81.351562 194.453125 " fill-opacity="1" fill-rule="nonzero"/></g></g><g clip-path="url(#58d028a10d)"><g clip-path="url(#03d9ac2fbf)"><path fill="#1d325f" d="M 81.351562 194.453125 L 116.019531 194.453125 L 116.019531 201.386719 L 81.351562 201.386719 Z M 81.351562 194.453125 " fill-opacity="1" fill-rule="nonzero"/></g></g><g fill="#1d325f" fill-opacity="1"><g transform="translate(126.880016, 199.888052)"><g><path d="M 26.9375 -14.671875 C 26.9375 -11.398438 26.328125 -8.675781 25.109375 -6.5 C 23.890625 -4.332031 22.171875 -2.707031 19.953125 -1.625 C 17.742188 -0.539062 15.144531 0 12.15625 0 L 3.046875 0 L 3.046875 -28.15625 L 12.78125 -28.15625 C 15.8125 -28.15625 18.378906 -27.632812 20.484375 -26.59375 C 22.585938 -25.550781 24.1875 -24.03125 25.28125 -22.03125 C 26.382812 -20.03125 26.9375 -17.578125 26.9375 -14.671875 Z M 19.046875 -14.40625 C 19.046875 -16.113281 18.816406 -17.523438 18.359375 -18.640625 C 17.898438 -19.765625 17.210938 -20.609375 16.296875 -21.171875 C 15.390625 -21.734375 14.242188 -22.015625 12.859375 -22.015625 L 10.65625 -22.015625 L 10.65625 -6.234375 L 12.34375 -6.234375 C 14.65625 -6.234375 16.347656 -6.90625 17.421875 -8.25 C 18.503906 -9.59375 19.046875 -11.644531 19.046875 -14.40625 Z M 19.046875 -14.40625 "/></g></g></g><g fill="#1d325f" fill-opacity="1"><g transform="translate(155.819811, 199.888052)"><g><path d="M 23.4375 -10.953125 C 23.4375 -9.128906 23.1875 -7.507812 22.6875 -6.09375 C 22.1875 -4.6875 21.457031 -3.5 20.5 -2.53125 C 19.550781 -1.570312 18.40625 -0.84375 17.0625 -0.34375 C 15.71875 0.144531 14.195312 0.390625 12.5 0.390625 C 10.914062 0.390625 9.46875 0.144531 8.15625 -0.34375 C 6.84375 -0.84375 5.695312 -1.570312 4.71875 -2.53125 C 3.738281 -3.5 2.984375 -4.6875 2.453125 -6.09375 C 1.921875 -7.507812 1.65625 -9.128906 1.65625 -10.953125 C 1.65625 -13.367188 2.09375 -15.410156 2.96875 -17.078125 C 3.851562 -18.742188 5.113281 -20.015625 6.75 -20.890625 C 8.382812 -21.765625 10.335938 -22.203125 12.609375 -22.203125 C 14.703125 -22.203125 16.5625 -21.765625 18.1875 -20.890625 C 19.820312 -20.015625 21.101562 -18.742188 22.03125 -17.078125 C 22.96875 -15.410156 23.4375 -13.367188 23.4375 -10.953125 Z M 9.296875 -10.953125 C 9.296875 -9.710938 9.40625 -8.664062 9.625 -7.8125 C 9.84375 -6.957031 10.191406 -6.304688 10.671875 -5.859375 C 11.160156 -5.421875 11.796875 -5.203125 12.578125 -5.203125 C 13.359375 -5.203125 13.976562 -5.421875 14.4375 -5.859375 C 14.90625 -6.304688 15.242188 -6.957031 15.453125 -7.8125 C 15.660156 -8.664062 15.765625 -9.710938 15.765625 -10.953125 C 15.765625 -12.203125 15.660156 -13.242188 15.453125 -14.078125 C 15.242188 -14.910156 14.90625 -15.535156 14.4375 -15.953125 C 13.96875 -16.378906 13.332031 -16.59375 12.53125 -16.59375 C 11.394531 -16.59375 10.570312 -16.117188 10.0625 -15.171875 C 9.550781 -14.222656 9.296875 -12.816406 9.296875 -10.953125 Z M 9.296875 -10.953125 "/></g></g></g><g fill="#1d325f" fill-opacity="1"><g transform="translate(180.947178, 199.888052)"><g><path d="M 15.765625 -22.203125 C 16.179688 -22.203125 16.613281 -22.171875 17.0625 -22.109375 C 17.507812 -22.054688 17.84375 -22.007812 18.0625 -21.96875 L 17.390625 -14.859375 C 17.140625 -14.929688 16.820312 -14.988281 16.4375 -15.03125 C 16.0625 -15.070312 15.523438 -15.09375 14.828125 -15.09375 C 14.347656 -15.09375 13.835938 -15.046875 13.296875 -14.953125 C 12.765625 -14.867188 12.253906 -14.679688 11.765625 -14.390625 C 11.285156 -14.109375 10.890625 -13.671875 10.578125 -13.078125 C 10.273438 -12.492188 10.125 -11.707031 10.125 -10.71875 L 10.125 0 L 2.59375 0 L 2.59375 -21.8125 L 8.203125 -21.8125 L 9.375 -18.328125 L 9.75 -18.328125 C 10.144531 -19.046875 10.648438 -19.695312 11.265625 -20.28125 C 11.890625 -20.863281 12.585938 -21.328125 13.359375 -21.671875 C 14.140625 -22.023438 14.941406 -22.203125 15.765625 -22.203125 Z M 15.765625 -22.203125 "/></g></g></g><g fill="#1d325f" fill-opacity="1"><g transform="translate(199.450935, 199.888052)"><g><path d="M 12.421875 -22.203125 C 14.535156 -22.203125 16.363281 -21.832031 17.90625 -21.09375 C 19.445312 -20.351562 20.632812 -19.242188 21.46875 -17.765625 C 22.300781 -16.296875 22.71875 -14.453125 22.71875 -12.234375 L 22.71875 -8.875 L 9.265625 -8.875 C 9.328125 -7.726562 9.753906 -6.789062 10.546875 -6.0625 C 11.335938 -5.332031 12.5 -4.96875 14.03125 -4.96875 C 15.394531 -4.96875 16.644531 -5.101562 17.78125 -5.375 C 18.914062 -5.644531 20.085938 -6.0625 21.296875 -6.625 L 21.296875 -1.21875 C 20.242188 -0.664062 19.09375 -0.257812 17.84375 0 C 16.601562 0.257812 15.035156 0.390625 13.140625 0.390625 C 10.941406 0.390625 8.972656 0 7.234375 -0.78125 C 5.503906 -1.570312 4.140625 -2.785156 3.140625 -4.421875 C 2.148438 -6.066406 1.65625 -8.179688 1.65625 -10.765625 C 1.65625 -13.378906 2.101562 -15.53125 3 -17.21875 C 3.90625 -18.90625 5.164062 -20.15625 6.78125 -20.96875 C 8.394531 -21.789062 10.273438 -22.203125 12.421875 -22.203125 Z M 12.6875 -17.078125 C 11.800781 -17.078125 11.0625 -16.796875 10.46875 -16.234375 C 9.875 -15.679688 9.523438 -14.804688 9.421875 -13.609375 L 15.890625 -13.609375 C 15.878906 -14.253906 15.75 -14.835938 15.5 -15.359375 C 15.257812 -15.890625 14.90625 -16.304688 14.4375 -16.609375 C 13.96875 -16.921875 13.382812 -17.078125 12.6875 -17.078125 Z M 12.6875 -17.078125 "/></g></g></g><g fill="#1d325f" fill-opacity="1"><g transform="translate(223.827363, 199.888052)"><g><path d="M 13.25 -22.203125 C 16.007812 -22.203125 18.164062 -21.515625 19.71875 -20.140625 C 21.269531 -18.773438 22.046875 -16.832031 22.046875 -14.3125 L 22.046875 0 L 16.828125 0 L 15.390625 -2.890625 L 15.234375 -2.890625 C 14.617188 -2.117188 13.984375 -1.488281 13.328125 -1 C 12.679688 -0.519531 11.941406 -0.171875 11.109375 0.046875 C 10.273438 0.273438 9.253906 0.390625 8.046875 0.390625 C 6.785156 0.390625 5.65625 0.132812 4.65625 -0.375 C 3.65625 -0.894531 2.863281 -1.675781 2.28125 -2.71875 C 1.707031 -3.757812 1.421875 -5.070312 1.421875 -6.65625 C 1.421875 -9 2.226562 -10.734375 3.84375 -11.859375 C 5.46875 -12.992188 7.8125 -13.628906 10.875 -13.765625 L 14.515625 -13.890625 L 14.515625 -14.1875 C 14.515625 -15.164062 14.273438 -15.859375 13.796875 -16.265625 C 13.316406 -16.679688 12.671875 -16.890625 11.859375 -16.890625 C 11.003906 -16.890625 10.046875 -16.738281 8.984375 -16.4375 C 7.921875 -16.132812 6.859375 -15.742188 5.796875 -15.265625 L 3.625 -20.234375 C 4.875 -20.878906 6.296875 -21.367188 7.890625 -21.703125 C 9.484375 -22.035156 11.269531 -22.203125 13.25 -22.203125 Z M 14.5625 -9.75 L 12.828125 -9.671875 C 11.441406 -9.617188 10.46875 -9.375 9.90625 -8.9375 C 9.34375 -8.507812 9.0625 -7.898438 9.0625 -7.109375 C 9.0625 -6.359375 9.257812 -5.804688 9.65625 -5.453125 C 10.0625 -5.109375 10.59375 -4.9375 11.25 -4.9375 C 12.15625 -4.9375 12.929688 -5.222656 13.578125 -5.796875 C 14.234375 -6.367188 14.5625 -7.117188 14.5625 -8.046875 Z M 14.5625 -9.75 "/></g></g></g><g fill="#1d325f" fill-opacity="1"><g transform="translate(248.396339, 199.888052)"><g><path d="M 9.375 0.390625 C 7.132812 0.390625 5.285156 -0.566406 3.828125 -2.484375 C 2.378906 -4.398438 1.65625 -7.195312 1.65625 -10.875 C 1.65625 -14.601562 2.398438 -17.421875 3.890625 -19.328125 C 5.378906 -21.242188 7.304688 -22.203125 9.671875 -22.203125 C 10.640625 -22.203125 11.476562 -22.0625 12.1875 -21.78125 C 12.894531 -21.5 13.507812 -21.113281 14.03125 -20.625 C 14.550781 -20.144531 15.003906 -19.601562 15.390625 -19 L 15.546875 -19 C 15.453125 -19.550781 15.363281 -20.3125 15.28125 -21.28125 C 15.207031 -22.25 15.171875 -23.195312 15.171875 -24.125 L 15.171875 -29.96875 L 22.765625 -29.96875 L 22.765625 0 L 17.078125 0 L 15.46875 -2.75 L 15.171875 -2.75 C 14.828125 -2.175781 14.394531 -1.648438 13.875 -1.171875 C 13.351562 -0.703125 12.722656 -0.320312 11.984375 -0.03125 C 11.242188 0.25 10.375 0.390625 9.375 0.390625 Z M 12.453125 -5.5625 C 13.660156 -5.5625 14.507812 -5.941406 15 -6.703125 C 15.5 -7.472656 15.769531 -8.640625 15.8125 -10.203125 L 15.8125 -10.796875 C 15.8125 -12.523438 15.566406 -13.847656 15.078125 -14.765625 C 14.597656 -15.679688 13.695312 -16.140625 12.375 -16.140625 C 11.476562 -16.140625 10.734375 -15.703125 10.140625 -14.828125 C 9.554688 -13.953125 9.265625 -12.597656 9.265625 -10.765625 C 9.265625 -8.953125 9.5625 -7.628906 10.15625 -6.796875 C 10.75 -5.972656 11.515625 -5.5625 12.453125 -5.5625 Z M 12.453125 -5.5625 "/></g></g></g><g fill="#1d325f" fill-opacity="1"><g transform="translate(273.754763, 199.888052)"><g><path d="M 18.8125 -6.703125 C 18.8125 -5.316406 18.503906 -4.085938 17.890625 -3.015625 C 17.273438 -1.953125 16.289062 -1.117188 14.9375 -0.515625 C 13.582031 0.0859375 11.800781 0.390625 9.59375 0.390625 C 8.039062 0.390625 6.648438 0.304688 5.421875 0.140625 C 4.191406 -0.0234375 2.945312 -0.347656 1.6875 -0.828125 L 1.6875 -6.859375 C 3.0625 -6.222656 4.460938 -5.765625 5.890625 -5.484375 C 7.316406 -5.210938 8.441406 -5.078125 9.265625 -5.078125 C 10.109375 -5.078125 10.722656 -5.171875 11.109375 -5.359375 C 11.503906 -5.546875 11.703125 -5.828125 11.703125 -6.203125 C 11.703125 -6.523438 11.570312 -6.796875 11.3125 -7.015625 C 11.050781 -7.242188 10.582031 -7.503906 9.90625 -7.796875 C 9.226562 -8.085938 8.28125 -8.488281 7.0625 -9 C 5.851562 -9.5 4.847656 -10.039062 4.046875 -10.625 C 3.242188 -11.21875 2.644531 -11.925781 2.25 -12.75 C 1.851562 -13.570312 1.65625 -14.578125 1.65625 -15.765625 C 1.65625 -17.898438 2.472656 -19.503906 4.109375 -20.578125 C 5.753906 -21.660156 7.9375 -22.203125 10.65625 -22.203125 C 12.09375 -22.203125 13.445312 -22.046875 14.71875 -21.734375 C 15.988281 -21.421875 17.300781 -20.960938 18.65625 -20.359375 L 16.59375 -15.5 C 15.519531 -15.988281 14.429688 -16.378906 13.328125 -16.671875 C 12.222656 -16.972656 11.34375 -17.125 10.6875 -17.125 C 10.09375 -17.125 9.632812 -17.046875 9.3125 -16.890625 C 9 -16.734375 8.84375 -16.507812 8.84375 -16.21875 C 8.84375 -15.945312 8.953125 -15.707031 9.171875 -15.5 C 9.398438 -15.289062 9.828125 -15.050781 10.453125 -14.78125 C 11.085938 -14.519531 12.003906 -14.144531 13.203125 -13.65625 C 14.472656 -13.132812 15.519531 -12.582031 16.34375 -12 C 17.175781 -11.414062 17.796875 -10.707031 18.203125 -9.875 C 18.609375 -9.039062 18.8125 -7.984375 18.8125 -6.703125 Z M 18.8125 -6.703125 "/></g></g></g></svg>